<svg id="Layer_1" data-name="Layer 1" xmlns="http://www.w3.org/2000/svg" viewBox="0 0 67 79.72"><title>bicho</title><path d="M31.13,60.57c2.83,2.7,7,2,9.94-.15a17.3,17.3,0,0,0,.29-3.82A47.25,47.25,0,0,0,38.6,42.2H30.29c-1.42,2.51-1.66,5.56-1.86,8.42C28.19,54.09,28.45,58,31.13,60.57Z" style="fill:#f9ae06"/><path d="M24.8,57.45c.3,6.83,4,10.19,8.2,10.19,3.48,0,7-2,8.07-7.22-2.93,2.13-7.11,2.85-9.94.15-2.68-2.56-2.94-6.48-2.7-10,.2-2.86.44-5.91,1.86-8.42H28.4C28.16,42.26,24.49,50.61,24.8,57.45Z" style="fill:#f78f08"/><path d="M18.27,0a9.72,9.72,0,0,0,4.59,7.44A45,45,0,0,1,30.2,12.9c1.14,1.2,2.53,4.86,2.53,4.86.81-.09-.23-3.41-2.95-6.42s-5.57-3.95-8-6.6A46.13,46.13,0,0,1,18.27,0Z" style="fill:#873217"/><path d="M48.72,0a9.72,9.72,0,0,1-4.59,7.44,45,45,0,0,0-7.34,5.46c-1.14,1.2-2.52,4.86-2.52,4.86-.82-.09.22-3.41,2.94-6.42s5.57-3.95,8-6.6A44.56,44.56,0,0,0,48.72,0Z" style="fill:#873217"/><path d="M37.69,21.24c0,2.67-1.88,4.83-4.2,4.83s-4.21-2.16-4.21-4.83,1.89-4.83,4.21-4.83S37.69,18.57,37.69,21.24Z" style="fill:#b25336"/><path d="M31.79,16.82s-2.64-.88-3.73.94,1.22,4.36,1.22,4.36A6.87,6.87,0,0,0,31.79,16.82Z" style="fill:#424242"/><path d="M35.11,16.82s2.64-.88,3.73.94-1.23,4.36-1.23,4.36A6.88,6.88,0,0,1,35.11,16.82Z" style="fill:#424242"/><path d="M33.49,37.32c4-2.34,2.92-10.16,2.13-14a5.46,5.46,0,0,0-2-.35h-.34c-3.45.1-3.53,1.71-5.09,5.81a19.82,19.82,0,0,0-1.36,6.71C28.25,37.33,30.49,39.07,33.49,37.32Z" style="fill:#873217"/><path d="M33.32,44.46v0h.34v0a6.71,6.71,0,0,0,4.82-2.86c2.37-3.59,1.88-8.55.27-12.78-1.19-3.12-1.52-4.79-3.13-5.46.79,3.8,1.86,11.62-2.13,14-3,1.75-5.24,0-6.62-1.79A10.62,10.62,0,0,0,28.5,41.6,6.71,6.71,0,0,0,33.32,44.46Z" style="fill:#6d210c"/><path d="M30.64,44.41a62.63,62.63,0,0,1-.83-17.06,3.66,3.66,0,0,0-2.67,1c1.07,3.11-1.87,6.35-4.05,8.52C18.7,41.28,14,45.46,9.94,50.13A24.25,24.25,0,0,0,3.58,65.31a40.93,40.93,0,0,0,.53,8.27q.28,1.73.69,3.45c.09.37.29.89.48,1.42,2.82,1.78,6.38,1.53,10.42.2s8.11-5.3,9.65-7.24C29.35,66.35,32.13,52.58,30.64,44.41Z" style="fill:#b25336"/><path d="M4.11,73.58a40.93,40.93,0,0,1-.53-8.27A24.25,24.25,0,0,1,9.94,50.13C14,45.46,18.7,41.28,23.09,36.9c2.18-2.17,5.12-5.41,4.05-8.52-1,1-2,2.54-3.81,4.58C20.23,36.42,7.19,46,3.59,54.38A35.2,35.2,0,0,0,1,60.86C-.44,67.67.73,75.28,5,78.24l.33.21c-.19-.53-.39-1-.48-1.42Q4.4,75.3,4.11,73.58Z" style="fill:#9e432e"/><path d="M23.33,37.57c0-.2-.27-.29-.31-.09,0,0,0,.05,0,.07a.07.07,0,0,0-.1.08,1.42,1.42,0,0,1,0,.2c-1.15,5.4-5.4,9.15-7.84,13.94-1,1.88-3.52,8.86.18,9.5.09,0,.2-.08.13-.18-3-4.34,2-10,4.26-13.61C21.34,44.84,23.91,39.9,23.33,37.57Z" style="fill:#9e432e"/><path d="M26,40a24.81,24.81,0,0,0-1.12-8.69,28.36,28.36,0,0,1,3.52-3.73c-1.53.4-2.27,1.7-4.19,3.83-2.8,3.12-6.46,6.13-9,8.52A69.74,69.74,0,0,0,5.48,50.63c-4.66,6.71-8,17.12-3,24.62A23.34,23.34,0,0,1,.79,64.43a18.67,18.67,0,0,0,5.52-5.28,36.54,36.54,0,0,0-2.2,8.65c-.37,3.28-.84,7.82,1.21,10.66-.92-2.53-1.13-7.37-.68-11,.41-3.32,1.63-6.28,2.49-9.44,1-1.44,1.94-2.9,3.05-4.23a17.09,17.09,0,0,1,1.6-1.63,42.05,42.05,0,0,0-5,13.69C5.89,70.1,4.76,75.94,8,79.5c-2.27-4.72-1.46-10.73-.38-15.26s3.18-8.8,5.21-13.08c2.55-2.38,5.48-5.31,4.44-8.17a16.16,16.16,0,0,0,3.89-7.76.2.2,0,0,0,0-.09q.8-.75,1.56-1.53c.77,6.74-4.36,11.73-7.33,17.27-.33.63-.65,1.28-.93,1.94A31.66,31.66,0,0,0,9.18,66C8.57,69.81,7.61,76.51,11,79.33c-2.41-3.61-2-10.5-1-14.83A38.07,38.07,0,0,1,13.9,54.26a12.67,12.67,0,0,0-.64,3.45c0,1.18,0,3.23,1.26,3.79-3.44,4.87-4.07,12.8-.74,17.83a25,25,0,0,1-1.52-9A17.71,17.71,0,0,1,15,61.64c1.49.17,2.6-1.59,3.3-2.62a30.21,30.21,0,0,0,3.48-7.57,14,14,0,0,1,1.35-3.17,15.4,15.4,0,0,0,2.33-4.87,26.71,26.71,0,0,1-1.59,8.89,91.51,91.51,0,0,1-4.44,9.53c-2.66,5.33-5,11-4.07,17.09a11.89,11.89,0,0,0,.32-2.5c5.18-4,7-11.54,9.28-17.37S30.84,45.57,26,40ZM12.86,50.12a39.77,39.77,0,0,0-4,4.48c-2.43,3.31-4.35,7.14-8,9.27A20.93,20.93,0,0,1,1.3,61c.09-.39.2-.78.31-1.17,1.92-.69,3.21-2.58,4.34-4.19a52.75,52.75,0,0,1,6.22-7.37c1.54-1.52,3.22-3.11,4.71-4.84C17.09,46.14,14.64,48.34,12.86,50.12Zm-1.67-1.79c-3.42,3.4-7.12,9.76-9.38,10.82a33.65,33.65,0,0,1,6-10.66A93.18,93.18,0,0,1,17,39c1.2-1.13,2.45-2.25,3.67-3.4C18.71,40.83,15.09,44.45,11.19,48.33ZM21.41,51a32.4,32.4,0,0,1-2.8,6.62c-.29.49-.59,1-.93,1.45-.83,1.16-2.77,2.84-3.69,1-.47-.94-.11-3.47,0-4.21,1.39-6.54,7.86-11.72,9.09-18.23C24.73,41.74,22.68,47,21.41,51Zm1.74-3.72c1-3.48,1.82-6.74.08-10.43a11.08,11.08,0,0,0-.15-3.61c.52-.53,1-1.08,1.51-1.63C25.42,37.09,26.23,42.37,23.15,47.26Zm1,12.35c-2.2,5.62-3.93,11.86-8.41,16.11C15.89,69.6,19,64,21.75,58.55c2.41-4.84,5.14-10.7,4-16.25A15.22,15.22,0,0,0,26,40.52c1.57,3.14,2.42,6.1,1.59,9.7A70.4,70.4,0,0,1,24.11,59.61Z" style="fill:#873217"/><path d="M36.36,44.41a63.16,63.16,0,0,0,.84-17.06,3.64,3.64,0,0,1,2.66,1c-1.07,3.11,1.87,6.35,4,8.52C48.3,41.28,53,45.46,57.06,50.13a24.25,24.25,0,0,1,6.36,15.18,40.21,40.21,0,0,1-.52,8.27q-.28,1.73-.69,3.45c-.09.37-.3.89-.48,1.42-2.82,1.78-6.39,1.53-10.43.2s-8.1-5.3-9.64-7.24C37.65,66.35,34.87,52.58,36.36,44.41Z" style="fill:#b25336"/><path d="M62.9,73.58a40.21,40.21,0,0,0,.52-8.27,24.25,24.25,0,0,0-6.36-15.18C53,45.46,48.3,41.28,43.91,36.9c-2.18-2.17-5.12-5.41-4-8.52,1,1,2,2.54,3.81,4.58,3.11,3.46,16.14,13,19.75,21.42A35.88,35.88,0,0,1,66,60.86c1.48,6.81.31,14.42-3.9,17.38l-.33.21c.18-.53.39-1,.48-1.42Q62.61,75.3,62.9,73.58Z" style="fill:#9e432e"/><path d="M43.67,37.57c0-.2.27-.29.31-.09,0,0,0,.05,0,.07a.07.07,0,0,1,.1.08l0,.2c1.14,5.4,5.4,9.15,7.84,13.94,1,1.88,3.51,8.86-.18,9.5-.1,0-.2-.08-.14-.18,3-4.34-2-10-4.25-13.61C45.66,44.84,43.09,39.9,43.67,37.57Z" style="fill:#9e432e"/><path d="M41,40a24.81,24.81,0,0,1,1.12-8.69,27.67,27.67,0,0,0-3.52-3.73c1.53.4,2.27,1.7,4.19,3.83,2.8,3.12,6.47,6.13,9,8.52a69.23,69.23,0,0,1,9.72,10.74c4.66,6.71,8,17.12,3,24.62a23.21,23.21,0,0,0,1.69-10.82,18.52,18.52,0,0,1-5.51-5.28,36.51,36.51,0,0,1,2.19,8.65c.38,3.28.84,7.82-1.2,10.66.91-2.53,1.12-7.37.67-11C62,64.12,60.73,61.16,59.87,58c-1-1.44-1.94-2.9-3-4.23a19.91,19.91,0,0,0-1.6-1.63,42.05,42.05,0,0,1,5,13.69c.85,4.27,2,10.11-1.25,13.67,2.26-4.72,1.46-10.73.38-15.26s-3.18-8.8-5.22-13.08c-2.55-2.38-5.48-5.31-4.43-8.17a16.07,16.07,0,0,1-3.89-7.76.13.13,0,0,1,0-.09L44.3,33.61c-.77,6.74,4.36,11.73,7.33,17.27.34.63.65,1.28.93,1.94A31.53,31.53,0,0,1,57.82,66c.62,3.78,1.58,10.48-1.84,13.3,2.41-3.61,2-10.5,1-14.83A37.74,37.74,0,0,0,53.1,54.26a12.68,12.68,0,0,1,.65,3.45c0,1.18,0,3.23-1.27,3.79,3.44,4.87,4.07,12.8.75,17.83a24.83,24.83,0,0,0,1.51-9A17.61,17.61,0,0,0,52,61.64c-1.48.17-2.6-1.59-3.3-2.62a30.56,30.56,0,0,1-3.48-7.57,14,14,0,0,0-1.34-3.17,15.43,15.43,0,0,1-2.34-4.87,27.23,27.23,0,0,0,1.59,8.89,93.61,93.61,0,0,0,4.44,9.53c2.66,5.33,5,11,4.08,17.09a11.91,11.91,0,0,1-.33-2.5c-5.17-4-7-11.54-9.27-17.37S36.16,45.57,41,40ZM54.15,50.12a39.69,39.69,0,0,1,4,4.48c2.43,3.31,4.35,7.14,8,9.27A22.6,22.6,0,0,0,65.71,61c-.09-.39-.21-.78-.32-1.17-1.92-.69-3.21-2.58-4.33-4.19a53.51,53.51,0,0,0-6.23-7.37c-1.54-1.52-3.21-3.11-4.71-4.84C49.91,46.14,52.36,48.34,54.15,50.12Zm1.66-1.79c3.42,3.4,7.12,9.76,9.38,10.82a33.43,33.43,0,0,0-6-10.66A94.27,94.27,0,0,0,50,39c-1.21-1.13-2.45-2.25-3.68-3.4C48.3,40.83,51.91,44.45,55.81,48.33ZM45.6,51a31.86,31.86,0,0,0,2.8,6.62c.28.49.59,1,.92,1.45.83,1.16,2.78,2.84,3.7,1,.46-.94.11-3.47-.05-4.21-1.39-6.54-7.86-11.72-9.08-18.23C42.27,41.74,44.33,47,45.6,51Zm-1.75-3.72c-1-3.48-1.81-6.74-.08-10.43a11.08,11.08,0,0,1,.15-3.61c-.52-.53-1-1.08-1.51-1.63C41.58,37.09,40.78,42.37,43.85,47.26Zm-1,12.35c2.19,5.62,3.93,11.86,8.4,16.11C51.11,69.6,48,64,45.26,58.55c-2.41-4.84-5.14-10.7-4-16.25-.11-.59-.18-1.18-.24-1.78-1.56,3.14-2.42,6.1-1.58,9.7A70.4,70.4,0,0,0,42.9,59.61Z" style="fill:#873217"/><path d="M29.65,28a16,16,0,0,0-1.08,3.84,12.16,12.16,0,0,1,3.05-2.46c-.44,1.46-1,3-.63,4.38.6-1.27,2-2.75,2.47-4.31.68,2.12,1.86,3,2.46,4.31.35-1.4-.18-2.92-.63-4.38a12,12,0,0,1,3.05,2.46A16,16,0,0,0,37.26,28a8.51,8.51,0,0,0,3.66,1.12,5.31,5.31,0,0,1-1.51-2.75,3.92,3.92,0,0,1-.25-.32c-1.57-2.11-4.11-3.52-5.7-3.53S29.34,24,27.77,26.07l-.27.35A5.27,5.27,0,0,1,26,29.14,8.47,8.47,0,0,0,29.65,28Z" style="fill:#fbcc02"/><path d="M22.5,31s2.6-.15,3.54-1.08a11.48,11.48,0,0,0-1.19,5.49s1.17-3,2.39-3.79a16.79,16.79,0,0,0,.08,5.25S28,33.55,28.93,33c-.28,2.62,2.12,4.59,2.12,4.59s.37-2.92,1-3.66a9,9,0,0,0,1.48,5.21c.4-.37,1-3.34,1.07-5.33a17.17,17.17,0,0,1,1.32,3.78s2.4-2,2.12-4.59c.88.56,1.61,3.85,1.61,3.85a16.59,16.59,0,0,0,.07-5.25c1.23.78,2.4,3.79,2.4,3.79a11.62,11.62,0,0,0-1.19-5.49c.94.93,3.54,1.08,3.54,1.08a15.73,15.73,0,0,1-5-4.58,5.31,5.31,0,0,0,1.51,2.75A8.51,8.51,0,0,1,37.26,28a16,16,0,0,1,1.08,3.84,12,12,0,0,0-3.05-2.46c.45,1.46,1,3,.63,4.38-.6-1.27-1.78-2.19-2.46-4.31C33,31,31.59,32.51,31,33.78c-.35-1.4.19-2.92.63-4.38a12.16,12.16,0,0,0-3.05,2.46A16,16,0,0,1,29.65,28,8.47,8.47,0,0,1,26,29.14a5.27,5.27,0,0,0,1.51-2.72A15.62,15.62,0,0,1,22.5,31Z" style="fill:#f9ae06"/></svg>