<svg xmlns="http://www.w3.org/2000/svg" viewBox="0 0 523.87 276.12"><title>cisco</title><g id="Vordergrund"><polygon points="510.72 262.52 510.72 263.94 506.66 263.94 506.66 274.5 504.99 274.5 504.99 263.94 500.93 263.94 500.93 262.52 510.72 262.52" style="fill:#c31a2d"/><polygon points="511.59 262.52 514.19 262.52 517.76 272.34 517.85 272.34 521.33 262.52 523.87 262.52 523.87 274.5 522.16 274.5 522.16 264.68 522.11 264.68 518.44 274.5 516.88 274.5 513.35 264.68 513.26 264.68 513.26 274.5 511.59 274.5 511.59 262.52" style="fill:#c31a2d"/><rect x="148.15" y="183.47" width="22.98" height="91.03" style="fill:#c31a2d"/><path d="M356.34,209.56A39.8,39.8,0,0,0,337,204.68c-14.82,0-25.14,10.35-25.14,24.29,0,13.53,9.88,24.3,25.14,24.3a40.39,40.39,0,0,0,19.33-4.83v24.44a73.73,73.73,0,0,1-20.94,3.24c-25.83,0-48.47-17.82-48.47-47.15,0-27.19,20.49-47.11,48.47-47.11a70,70,0,0,1,20.94,3.25Z" style="fill:#c31a2d"/><path d="M116.6,209.56a39.79,39.79,0,0,0-19.32-4.88C82.41,204.68,72.11,215,72.11,229c0,13.53,9.86,24.3,25.17,24.3a40.55,40.55,0,0,0,19.32-4.83v24.44a73.69,73.69,0,0,1-21,3.24c-25.8,0-48.45-17.82-48.45-47.15,0-27.19,20.52-47.11,48.45-47.11a70.69,70.69,0,0,1,21,3.25Z" style="fill:#c31a2d"/><path d="M476.71,229c0,26-20.09,47.15-48.08,47.15S380.55,255,380.55,229s20.06-47.11,48.08-47.11S476.71,203,476.71,229ZM428.63,205a24,24,0,0,0,0,47.9c13.6,0,23.73-10.72,23.73-24A23.53,23.53,0,0,0,428.63,205Z" style="fill:#c31a2d"/><path d="M258.26,204.15c-.34-.09-10-2.76-17.95-2.76-9.25,0-14.24,3.08-14.24,7.45,0,5.55,6.75,7.47,10.52,8.69l6.36,2c14.92,4.73,21.72,15,21.72,26,0,22.88-20.11,30.56-37.72,30.56a136.21,136.21,0,0,1-24.8-2.49V252.69c2.06.5,11.69,3.37,21.72,3.37,11.4,0,16.68-3.33,16.68-8.5,0-4.62-4.55-7.26-10.27-9.06-1.37-.46-3.47-1.11-4.89-1.6-12.81-4-23.48-11.54-23.48-26.61,0-17,12.77-28.47,34-28.47a99,99,0,0,1,22.4,2.9Z" style="fill:#c31a2d"/><path d="M22.8,85.63a11.4,11.4,0,0,0-22.8,0v23.9a11.4,11.4,0,1,0,22.8,0Z" style="fill:#1d546a"/><path d="M85.44,54.26a11.4,11.4,0,0,0-22.8,0v55.27a11.4,11.4,0,1,0,22.8,0Z" style="fill:#1d546a"/><path d="M148.11,11.36a11.43,11.43,0,0,0-22.85,0V132.25a11.43,11.43,0,0,0,22.85,0Z" style="fill:#1d546a"/><path d="M210.71,54.26a11.4,11.4,0,0,0-22.79,0v55.27a11.4,11.4,0,1,0,22.79,0Z" style="fill:#1d546a"/><path d="M273.32,85.63a11.37,11.37,0,0,0-22.74,0v23.9a11.37,11.37,0,1,0,22.74,0Z" style="fill:#1d546a"/><path d="M336,54.26a11.38,11.38,0,0,0-22.75,0v55.27a11.38,11.38,0,1,0,22.75,0Z" style="fill:#1d546a"/><path d="M398.65,11.36a11.37,11.37,0,0,0-22.74,0V132.25a11.37,11.37,0,1,0,22.74,0Z" style="fill:#1d546a"/><path d="M461.31,54.26a11.42,11.42,0,0,0-22.84,0v55.27a11.42,11.42,0,0,0,22.84,0Z" style="fill:#1d546a"/><path d="M523.87,85.63a11.38,11.38,0,0,0-22.75,0v23.9a11.38,11.38,0,1,0,22.75,0Z" style="fill:#1d546a"/></g></svg>