<svg id="Capa_1" data-name="Capa 1" xmlns="http://www.w3.org/2000/svg" viewBox="0 0 200 200"><title>diez</title><rect width="200" height="200" style="fill:#fdc559"/><path d="M79.83,151.78h-59V140.64H43.5V67.55H20.8v-10a69,69,0,0,0,9.88-.77,24.81,24.81,0,0,0,8-2.24A15.08,15.08,0,0,0,44,49.93a14.79,14.79,0,0,0,2.23-7.58H57.56v98.29H79.83Z" style="fill:#fff"/><path d="M181.27,97.21q0,29.37-9.19,43.1t-28.53,13.74q-19.64,0-28.67-13.92t-9-42.77q0-29.08,9.16-43t28.56-13.88q19.62,0,28.67,14.1T181.27,97.21ZM162,130.46a49.11,49.11,0,0,0,3.48-14,173.82,173.82,0,0,0,.91-19.3,177.08,177.08,0,0,0-.91-19.33A45.18,45.18,0,0,0,161.93,64a19.29,19.29,0,0,0-7-8.5q-4.44-2.85-11.39-2.85a20.94,20.94,0,0,0-11.39,2.85A19.45,19.45,0,0,0,125,64.11a45.68,45.68,0,0,0-3.41,14.13,184,184,0,0,0-.91,19.12,190.76,190.76,0,0,0,.8,19.11A46.66,46.66,0,0,0,125,130.24a19.23,19.23,0,0,0,6.84,8.72q4.44,3,11.76,3A21.15,21.15,0,0,0,155,139.11,18.52,18.52,0,0,0,162,130.46Z" style="fill:#fff"/></svg>