<svg id="Layer_1" data-name="Layer 1" xmlns="http://www.w3.org/2000/svg" viewBox="0 0 53.36 104.45"><title>fufu</title><path d="M10.38,2.16l-6-.07A13.69,13.69,0,0,0,5.91,8.78a7.33,7.33,0,0,0,4,3.57l5.46,1.28Z" style="fill:#333"/><rect x="9.88" y="12.35" width="9.57" height="1.72" style="fill:#424242"/><rect x="45.2" y="4.64" width="8.16" height="4.83" style="fill:#424242"/><rect x="43.84" y="3.44" width="2.72" height="7.3" style="fill:#6d6d6d"/><rect x="17.18" y="3.77" width="21.98" height="6.96" style="fill:#333"/><circle cx="15.34" cy="6.82" r="6.82" style="fill:#4d4d4d"/><rect x="32.59" y="2.16" width="2.95" height="10.2" style="fill:#6d6d6d"/><rect x="35.53" y="0.44" width="9.06" height="13.63" style="fill:#333"/><rect x="35.53" y="2.09" width="9.06" height="1.35" style="fill:#4d4d4d"/><rect x="35.53" y="6.58" width="9.06" height="1.35" style="fill:#4d4d4d"/><rect x="35.53" y="10.74" width="9.06" height="1.35" style="fill:#4d4d4d"/><rect x="34.06" y="2.09" width="1.47" height="10.26" style="fill:#424242"/><circle cx="15.34" cy="6.62" r="4.89" style="fill:#6d6d6d"/><rect x="50.64" y="3.44" width="2.72" height="7.3" style="fill:#6d6d6d"/><polygon points="9.88 14.07 8.53 16.38 14.66 16.38 14.66 14.07 9.88 14.07" style="fill:#333"/><polygon points="19.45 14.07 20.8 16.38 14.66 16.38 14.66 14.07 19.45 14.07" style="fill:#333"/><rect x="8.53" y="16.38" width="12.27" height="2.39" style="fill:#4d4d4d"/><rect x="6.98" y="18.77" width="15.18" height="7.97" style="fill:#333"/><rect x="8.53" y="18.77" width="1.22" height="6.14" style="fill:#5b5b5b"/><rect x="19.58" y="18.77" width="1.22" height="6.14" style="fill:#5b5b5b"/><rect x="11.29" y="18.77" width="1.22" height="6.14" style="fill:#5b5b5b"/><rect x="14.06" y="18.77" width="1.22" height="6.14" style="fill:#5b5b5b"/><rect x="16.82" y="18.77" width="1.22" height="6.14" style="fill:#5b5b5b"/><path d="M2.72,104.45H38.45a2.72,2.72,0,0,0,2.72-2.72v-.34H0v.34A2.72,2.72,0,0,0,2.72,104.45Z" style="fill:#333"/><path d="M38.4,57.66c-.15-6.19-.9-7.55-4.34-10.27-3.25-2.57-6.9-4.15-9.55-6.42-3.71-3.17-.15-7.4-1.36-9.83a21,21,0,0,0-3.7-4.4H7s-1.16,1.39-2.25,2.73c-1.62,2,.37,3.93,1.2,6.81s-1.51,5.5-2.65,8.38S.19,49.88.19,55.15C.19,60.57,0,97.49,0,101.39H38.42C38.46,89.26,38.52,62.43,38.4,57.66Z" style="fill:#424242"/><path d="M41,58.12c-.45-6.12-1.2-8.51-3-10.73-2.24-2.72-8.68-5.37-11.18-7.34-1.27-1-2.48-4.06-1.66-6.1s.83-2.49-.38-4.53a9.19,9.19,0,0,0-2.57-2.68H19.45a21,21,0,0,1,3.7,4.4c1.21,2.43-2.35,6.66,1.36,9.83,2.65,2.27,6.3,3.85,9.55,6.42,3.44,2.72,4.19,4.08,4.34,10.27.12,4.77.06,31.6,0,43.73h2.75C41.18,97.55,41.24,61.76,41,58.12Z" style="fill:#6d6d6d"/><rect x="5.4" y="55.55" width="30.13" height="15.86" rx="2.72" ry="2.72" style="fill:#333"/><rect x="5.4" y="80.7" width="30.13" height="15.86" rx="2.72" ry="2.72" style="fill:#333"/><rect x="5.4" y="59.37" width="30.13" height="33.71" rx="2.72" ry="2.72" style="fill:#fbcc02"/><rect x="9.99" y="32.58" width="9.36" height="1.57" style="fill:#333"/><rect x="9.99" y="35.98" width="9.36" height="1.57" style="fill:#333"/><path d="M28.12,76.24c-.06-.13-.35-.23-.64-.24a6.8,6.8,0,0,0-2.08.22,2.35,2.35,0,0,0-.79.38.33.33,0,0,0-.3,0,11.74,11.74,0,0,0-.92.82l-.91-.06a12.51,12.51,0,0,0-1.26,0,2.65,2.65,0,0,0-.19-.6.94.94,0,0,0,.07-.39,9.56,9.56,0,0,0,1.58-.56.58.58,0,0,0,.25-.37.71.71,0,0,0,.51-.47l.35-.92a.93.93,0,0,0,.34-.12c.18-.12.47-.32.82-.53a11.47,11.47,0,0,1,1.49-.73c.43-.16.51-.33.4-.43a.88.88,0,0,0-.69,0,6.9,6.9,0,0,0-1.83,1,2.19,2.19,0,0,0-.6.72,1.09,1.09,0,0,0-.5.59c-.16.37-.28.64-.34.76a.51.51,0,0,0-.29.1,11,11,0,0,1-1.54.45,1.17,1.17,0,0,0-.06-.2,1.81,1.81,0,0,0-.23-.46.57.57,0,0,0-.24-.36,2.18,2.18,0,0,0,1.19-.31,5.3,5.3,0,0,0,.39-2.1,2,2,0,0,0-.39-1.5,3.54,3.54,0,0,0,.75-.65A10.55,10.55,0,0,0,23.7,67.5c.2-.66-.19-1-.48-.12a19.9,19.9,0,0,1-1,2.58,3,3,0,0,1-.83.89l-.05,0a4.65,4.65,0,0,0,.15-2c-.26-.68-.74-.56-.74-.56a.86.86,0,0,1,.36.79c-.06.3-.44.3-.44.3s.45.23.31.5a.67.67,0,0,1-.41.28.9.9,0,0,1,.21.74H19.58a.94.94,0,0,1,.21-.74.63.63,0,0,1-.4-.28c-.15-.27.3-.5.3-.5s-.38,0-.44-.3a.86.86,0,0,1,.36-.79s-.47-.12-.74.56a4.81,4.81,0,0,0,.15,2h0a3.28,3.28,0,0,1-.8-.87,19.9,19.9,0,0,1-1-2.58c-.29-.93-.68-.54-.48.12A10.55,10.55,0,0,0,18,70.41a3.68,3.68,0,0,0,.69.61h0a2,2,0,0,0-.42,1.54,5.71,5.71,0,0,0,.39,2.1,2.08,2.08,0,0,0,1.14.3.68.68,0,0,0-.24.36h0a2,2,0,0,0-.29.64,8.57,8.57,0,0,1-1.42-.42.53.53,0,0,0-.29-.1c-.06-.12-.18-.39-.34-.76a1.09,1.09,0,0,0-.5-.59,2.19,2.19,0,0,0-.6-.72,6.9,6.9,0,0,0-1.83-1,.88.88,0,0,0-.69,0c-.11.1,0,.27.4.43a11.47,11.47,0,0,1,1.49.73c.35.21.64.41.82.53a.93.93,0,0,0,.34.12l.35.92a.71.71,0,0,0,.51.47.58.58,0,0,0,.25.37,9.39,9.39,0,0,0,1.45.52,1.55,1.55,0,0,0,0,.22.78.78,0,0,0,.09.27,2.91,2.91,0,0,0-.16.54,11.84,11.84,0,0,0-1.19,0l-.91.06a11.74,11.74,0,0,0-.92-.82.33.33,0,0,0-.3,0,2.35,2.35,0,0,0-.79-.38A6.8,6.8,0,0,0,12.9,76c-.29,0-.58.11-.64.24s.08.26.53.24a11.09,11.09,0,0,1,1.66.09c.4.05.75.13,1,.16a.81.81,0,0,0,.27,0c.14.13.57.54.91.8.1.09.27,0,.36,0a1.41,1.41,0,0,0,.81.24,7,7,0,0,1,1.3.13,1.5,1.5,0,0,0,.07.44l0,.1c-.34.12-1.54.52-1.85.66a.71.71,0,0,0-.37.51,2.49,2.49,0,0,0-.92.89,1,1,0,0,0-.12.65c-.1.15-.38.54-.77,1.14a9.39,9.39,0,0,1-1.7,1.93c-.37.27-.27.41.1.34.83-.15,2.06-2,2.25-2.38a1.4,1.4,0,0,0,.22-1c.08-.11.23-.3.46-.56.54-.62.6-.88.58-1a3.75,3.75,0,0,1,.9-.43,13.69,13.69,0,0,1,1.49-.42l.11.06h0l0,.33h0a1.78,1.78,0,0,0-.69.76,4.68,4.68,0,0,0-.33,1.28c0,.12,0,.37-.07.57h0a.49.49,0,0,1,0,.12V82h0a8.05,8.05,0,0,0,0,1.71,3.18,3.18,0,0,0,.16.61,1.46,1.46,0,0,0,.23.41,1.93,1.93,0,0,0,1.24.86h0s.58,0,1.27-.87c.85-1.07.31-4.22,0-4.81a1.91,1.91,0,0,0-.63-.73h0V78.9h0a1,1,0,0,0,.21-.11,14.57,14.57,0,0,1,1.53.43,3.75,3.75,0,0,1,.9.43c0,.1,0,.36.58,1,.23.26.38.45.46.56a1.4,1.4,0,0,0,.22,1c.19.36,1.42,2.23,2.25,2.38.37.07.47-.07.1-.34a9.39,9.39,0,0,1-1.7-1.93c-.39-.6-.67-1-.77-1.14a1,1,0,0,0-.13-.65,2.42,2.42,0,0,0-.91-.89.71.71,0,0,0-.37-.51c-.33-.15-1.68-.6-1.91-.68a1.36,1.36,0,0,0,.09-.51,8.24,8.24,0,0,1,1.37-.14,1.41,1.41,0,0,0,.81-.24c.09,0,.26.09.36,0,.34-.26.77-.67.91-.8a.81.81,0,0,0,.27,0c.21,0,.56-.11,1-.16a11.09,11.09,0,0,1,1.66-.09C28,76.5,28.19,76.37,28.12,76.24Zm-7.81,8.28-.07,0Zm-.11-.08-.13-.08Zm-.07,1.11,0,0h0Zm0,0,0,0Zm.32-.56a.09.09,0,0,0,0,0A.09.09,0,0,1,20.49,85Zm-.27.51,0,0Zm.05-.06,0,0Zm.05-.06,0,0Zm.05-.07,0,0Zm0-.08a.05.05,0,0,0,0,0A.05.05,0,0,1,20.41,85.19Zm0-.08s0,0,0,0S20.46,85.1,20.45,85.11Zm0-.08s0,0,0,0S20.48,85,20.48,85Zm-.14-.47.05,0Zm.07.08,0,0Zm.05.09a.08.08,0,0,1,0,0A.08.08,0,0,0,20.46,84.73Zm0,.09a.06.06,0,0,0,0,0A.06.06,0,0,1,20.49,84.82Z" style="fill:#873217"/><path d="M20.19,90.08a13.5,13.5,0,1,1,13.5-13.5A13.52,13.52,0,0,1,20.19,90.08Zm0-25.5a12,12,0,1,0,12,12A12,12,0,0,0,20.19,64.58Z" style="fill:#fff"/><rect x="5.4" y="51.12" width="30.13" height="2.11" style="fill:#fff"/></svg>